<mxfile host="app.diagrams.net" modified="2023-12-19T07:59:40.990Z" agent="Mozilla/5.0 (Macintosh; Intel Mac OS X 10_15_7) AppleWebKit/537.36 (KHTML, like Gecko) Chrome/120.0.0.0 Safari/537.36" etag="0rHj_2EmAAEqA64d9f01" version="22.1.11" type="device">
  <diagram name="Sayfa -1" id="eZmPnqsUvpHIrJyrgZKx">
    <mxGraphModel dx="1754" dy="911" grid="1" gridSize="10" guides="1" tooltips="1" connect="1" arrows="1" fold="1" page="1" pageScale="1" pageWidth="1169" pageHeight="1654" math="0" shadow="0">
      <root>
        <mxCell id="0" />
        <mxCell id="1" parent="0" />
        <mxCell id="ze_Nw8js-bjfWetpe4vi-1" value="&lt;h1&gt;&lt;span style=&quot;background-color: initial;&quot;&gt;Soru 2&lt;/span&gt;&lt;/h1&gt;&lt;h1&gt;&lt;span style=&quot;background-color: initial; font-size: 12px; font-weight: normal;&quot;&gt;Dik üçgenin iki kenarı kullanıcıdan istendikten sonra hipotenüsünü hesaplayan algoritma&lt;/span&gt;&lt;br&gt;&lt;/h1&gt;" style="text;html=1;strokeColor=none;fillColor=none;spacing=5;spacingTop=-20;whiteSpace=wrap;overflow=hidden;rounded=0;" vertex="1" parent="1">
          <mxGeometry x="20" y="20" width="200" height="150" as="geometry" />
        </mxCell>
        <mxCell id="ze_Nw8js-bjfWetpe4vi-2" value="&lt;h1&gt;&lt;span style=&quot;background-color: initial;&quot;&gt;Soru 3&lt;/span&gt;&lt;/h1&gt;&lt;h1&gt;&lt;span style=&quot;background-color: initial; font-size: 12px; font-weight: normal;&quot;&gt;Sınıf mevcudu kullanıcıdan alınanan vizenin 40% finalin 50% puan ortalaması bulan akış diyagramı&lt;/span&gt;&lt;br&gt;&lt;/h1&gt;" style="text;html=1;strokeColor=none;fillColor=none;spacing=5;spacingTop=-20;whiteSpace=wrap;overflow=hidden;rounded=0;" vertex="1" parent="1">
          <mxGeometry x="230" y="30" width="410" height="120" as="geometry" />
        </mxCell>
        <mxCell id="ze_Nw8js-bjfWetpe4vi-5" value="" style="edgeStyle=orthogonalEdgeStyle;rounded=0;orthogonalLoop=1;jettySize=auto;html=1;" edge="1" parent="1" source="ze_Nw8js-bjfWetpe4vi-3" target="ze_Nw8js-bjfWetpe4vi-4">
          <mxGeometry relative="1" as="geometry" />
        </mxCell>
        <mxCell id="ze_Nw8js-bjfWetpe4vi-3" value="Başla" style="ellipse;whiteSpace=wrap;html=1;" vertex="1" parent="1">
          <mxGeometry x="30" y="200" width="120" height="80" as="geometry" />
        </mxCell>
        <mxCell id="ze_Nw8js-bjfWetpe4vi-8" value="" style="edgeStyle=orthogonalEdgeStyle;rounded=0;orthogonalLoop=1;jettySize=auto;html=1;" edge="1" parent="1" source="ze_Nw8js-bjfWetpe4vi-4" target="ze_Nw8js-bjfWetpe4vi-7">
          <mxGeometry relative="1" as="geometry" />
        </mxCell>
        <mxCell id="ze_Nw8js-bjfWetpe4vi-4" value="a, b" style="shape=parallelogram;perimeter=parallelogramPerimeter;whiteSpace=wrap;html=1;fixedSize=1;" vertex="1" parent="1">
          <mxGeometry x="30" y="300" width="120" height="60" as="geometry" />
        </mxCell>
        <mxCell id="ze_Nw8js-bjfWetpe4vi-10" value="" style="edgeStyle=orthogonalEdgeStyle;rounded=0;orthogonalLoop=1;jettySize=auto;html=1;" edge="1" parent="1" source="ze_Nw8js-bjfWetpe4vi-7" target="ze_Nw8js-bjfWetpe4vi-9">
          <mxGeometry relative="1" as="geometry" />
        </mxCell>
        <mxCell id="ze_Nw8js-bjfWetpe4vi-7" value="c =a2+b2" style="shape=hexagon;perimeter=hexagonPerimeter2;whiteSpace=wrap;html=1;fixedSize=1;" vertex="1" parent="1">
          <mxGeometry x="30" y="390" width="120" height="70" as="geometry" />
        </mxCell>
        <mxCell id="ze_Nw8js-bjfWetpe4vi-12" value="" style="edgeStyle=orthogonalEdgeStyle;rounded=0;orthogonalLoop=1;jettySize=auto;html=1;" edge="1" parent="1" source="ze_Nw8js-bjfWetpe4vi-9" target="ze_Nw8js-bjfWetpe4vi-11">
          <mxGeometry relative="1" as="geometry" />
        </mxCell>
        <mxCell id="ze_Nw8js-bjfWetpe4vi-9" value="karekok(c)" style="shape=hexagon;perimeter=hexagonPerimeter2;whiteSpace=wrap;html=1;fixedSize=1;" vertex="1" parent="1">
          <mxGeometry x="30" y="490" width="120" height="80" as="geometry" />
        </mxCell>
        <mxCell id="ze_Nw8js-bjfWetpe4vi-14" value="" style="edgeStyle=orthogonalEdgeStyle;rounded=0;orthogonalLoop=1;jettySize=auto;html=1;" edge="1" parent="1" source="ze_Nw8js-bjfWetpe4vi-11" target="ze_Nw8js-bjfWetpe4vi-13">
          <mxGeometry relative="1" as="geometry" />
        </mxCell>
        <mxCell id="ze_Nw8js-bjfWetpe4vi-11" value="c" style="shape=document;whiteSpace=wrap;html=1;boundedLbl=1;" vertex="1" parent="1">
          <mxGeometry x="30" y="610" width="120" height="80" as="geometry" />
        </mxCell>
        <mxCell id="ze_Nw8js-bjfWetpe4vi-13" value="Bitiş" style="ellipse;whiteSpace=wrap;html=1;" vertex="1" parent="1">
          <mxGeometry x="50" y="727" width="80" height="80" as="geometry" />
        </mxCell>
        <mxCell id="ze_Nw8js-bjfWetpe4vi-17" value="" style="edgeStyle=orthogonalEdgeStyle;rounded=0;orthogonalLoop=1;jettySize=auto;html=1;" edge="1" parent="1" source="ze_Nw8js-bjfWetpe4vi-15" target="ze_Nw8js-bjfWetpe4vi-16">
          <mxGeometry relative="1" as="geometry" />
        </mxCell>
        <mxCell id="ze_Nw8js-bjfWetpe4vi-15" value="Başla" style="ellipse;whiteSpace=wrap;html=1;" vertex="1" parent="1">
          <mxGeometry x="470" y="190" width="120" height="80" as="geometry" />
        </mxCell>
        <mxCell id="ze_Nw8js-bjfWetpe4vi-19" value="" style="edgeStyle=orthogonalEdgeStyle;rounded=0;orthogonalLoop=1;jettySize=auto;html=1;" edge="1" parent="1" source="ze_Nw8js-bjfWetpe4vi-16" target="ze_Nw8js-bjfWetpe4vi-18">
          <mxGeometry relative="1" as="geometry" />
        </mxCell>
        <mxCell id="ze_Nw8js-bjfWetpe4vi-16" value="sinif_mevcudu&lt;br&gt;sm=sinif_mevcudu" style="shape=parallelogram;perimeter=parallelogramPerimeter;whiteSpace=wrap;html=1;fixedSize=1;" vertex="1" parent="1">
          <mxGeometry x="440" y="300" width="180" height="60" as="geometry" />
        </mxCell>
        <mxCell id="ze_Nw8js-bjfWetpe4vi-25" value="" style="edgeStyle=orthogonalEdgeStyle;rounded=0;orthogonalLoop=1;jettySize=auto;html=1;" edge="1" parent="1" source="ze_Nw8js-bjfWetpe4vi-18" target="ze_Nw8js-bjfWetpe4vi-24">
          <mxGeometry relative="1" as="geometry" />
        </mxCell>
        <mxCell id="ze_Nw8js-bjfWetpe4vi-30" value="" style="edgeStyle=orthogonalEdgeStyle;rounded=0;orthogonalLoop=1;jettySize=auto;html=1;" edge="1" parent="1" source="ze_Nw8js-bjfWetpe4vi-18" target="ze_Nw8js-bjfWetpe4vi-29">
          <mxGeometry relative="1" as="geometry" />
        </mxCell>
        <mxCell id="ze_Nw8js-bjfWetpe4vi-18" value="i=0, i&amp;lt;=sm, i++&amp;nbsp;" style="shape=hexagon;perimeter=hexagonPerimeter2;whiteSpace=wrap;html=1;fixedSize=1;" vertex="1" parent="1">
          <mxGeometry x="470" y="480" width="120" height="80" as="geometry" />
        </mxCell>
        <mxCell id="ze_Nw8js-bjfWetpe4vi-27" style="edgeStyle=orthogonalEdgeStyle;rounded=0;orthogonalLoop=1;jettySize=auto;html=1;entryX=1;entryY=0.5;entryDx=0;entryDy=0;" edge="1" parent="1" source="ze_Nw8js-bjfWetpe4vi-22" target="ze_Nw8js-bjfWetpe4vi-18">
          <mxGeometry relative="1" as="geometry">
            <Array as="points">
              <mxPoint x="690" y="740" />
              <mxPoint x="690" y="520" />
            </Array>
          </mxGeometry>
        </mxCell>
        <mxCell id="ze_Nw8js-bjfWetpe4vi-22" value="s=sonuc, t=toplam&lt;br&gt;s=v*40% + f*60,&lt;br&gt;t=t+s," style="shape=hexagon;perimeter=hexagonPerimeter2;whiteSpace=wrap;html=1;fixedSize=1;" vertex="1" parent="1">
          <mxGeometry x="440" y="685" width="180" height="110" as="geometry" />
        </mxCell>
        <mxCell id="ze_Nw8js-bjfWetpe4vi-26" style="edgeStyle=orthogonalEdgeStyle;rounded=0;orthogonalLoop=1;jettySize=auto;html=1;entryX=0.5;entryY=0;entryDx=0;entryDy=0;" edge="1" parent="1" source="ze_Nw8js-bjfWetpe4vi-24" target="ze_Nw8js-bjfWetpe4vi-22">
          <mxGeometry relative="1" as="geometry" />
        </mxCell>
        <mxCell id="ze_Nw8js-bjfWetpe4vi-24" value="v=vize, f=final" style="shape=parallelogram;perimeter=parallelogramPerimeter;whiteSpace=wrap;html=1;fixedSize=1;" vertex="1" parent="1">
          <mxGeometry x="470" y="590" width="120" height="60" as="geometry" />
        </mxCell>
        <mxCell id="ze_Nw8js-bjfWetpe4vi-32" value="" style="edgeStyle=orthogonalEdgeStyle;rounded=0;orthogonalLoop=1;jettySize=auto;html=1;" edge="1" parent="1" source="ze_Nw8js-bjfWetpe4vi-29" target="ze_Nw8js-bjfWetpe4vi-31">
          <mxGeometry relative="1" as="geometry" />
        </mxCell>
        <mxCell id="ze_Nw8js-bjfWetpe4vi-29" value="o=ortalama&lt;br&gt;o = t / sm" style="shape=hexagon;perimeter=hexagonPerimeter2;whiteSpace=wrap;html=1;fixedSize=1;" vertex="1" parent="1">
          <mxGeometry x="270" y="480" width="120" height="80" as="geometry" />
        </mxCell>
        <mxCell id="ze_Nw8js-bjfWetpe4vi-34" value="" style="edgeStyle=orthogonalEdgeStyle;rounded=0;orthogonalLoop=1;jettySize=auto;html=1;exitX=0.525;exitY=0.788;exitDx=0;exitDy=0;exitPerimeter=0;" edge="1" parent="1" source="ze_Nw8js-bjfWetpe4vi-31" target="ze_Nw8js-bjfWetpe4vi-33">
          <mxGeometry relative="1" as="geometry" />
        </mxCell>
        <mxCell id="ze_Nw8js-bjfWetpe4vi-31" value="o" style="shape=document;whiteSpace=wrap;html=1;boundedLbl=1;" vertex="1" parent="1">
          <mxGeometry x="270" y="590" width="120" height="80" as="geometry" />
        </mxCell>
        <mxCell id="ze_Nw8js-bjfWetpe4vi-33" value="bitiş" style="ellipse;whiteSpace=wrap;html=1;" vertex="1" parent="1">
          <mxGeometry x="290" y="700" width="80" height="80" as="geometry" />
        </mxCell>
        <mxCell id="ze_Nw8js-bjfWetpe4vi-35" value="toplam=0" style="rounded=0;whiteSpace=wrap;html=1;" vertex="1" parent="1">
          <mxGeometry x="470" y="390" width="120" height="60" as="geometry" />
        </mxCell>
      </root>
    </mxGraphModel>
  </diagram>
</mxfile>
